<?xml version="1.0" encoding="UTF-8" standalone="no"?>
<!DOCTYPE svg PUBLIC "-//W3C//DTD SVG 1.1//EN"
 "http://www.w3.org/Graphics/SVG/1.1/DTD/svg11.dtd">
<!-- Generated by graphviz version 2.40.1 (20161225.0304)
 -->
<!-- Title: G Pages: 1 -->
<svg width="258pt" height="152pt"
 viewBox="0.00 0.00 257.79 152.00" xmlns="http://www.w3.org/2000/svg" xmlns:xlink="http://www.w3.org/1999/xlink">
<g id="graph0" class="graph" transform="scale(1 1) rotate(0) translate(4 148)">
<title>G</title>
<polygon fill="#ffffff" stroke="transparent" points="-4,4 -4,-148 253.7855,-148 253.7855,4 -4,4"/>
<!-- 1 -->
<g id="node1" class="node">
<title>1</title>
<ellipse fill="none" stroke="#000000" cx="27.2976" cy="-45" rx="27.0966" ry="18"/>
<text text-anchor="middle" x="27.2976" y="-41.3" font-family="Times,serif" font-size="14.00" fill="#000000">t1=5</text>
</g>
<!-- 2 -->
<g id="node2" class="node">
<title>2</title>
<ellipse fill="none" stroke="#000000" cx="124.8927" cy="-72" rx="27.0966" ry="18"/>
<text text-anchor="middle" x="124.8927" y="-68.3" font-family="Times,serif" font-size="14.00" fill="#000000">t2=3</text>
</g>
<!-- 1&#45;&#45;2 -->
<g id="edge1" class="edge">
<title>1&#45;&#45;2</title>
<path fill="none" stroke="#000000" d="M52.6848,-52.0234C67.1433,-56.0234 85.1953,-61.0176 99.6326,-65.0117"/>
<text text-anchor="middle" x="76.0952" y="-62.8" font-family="Times,serif" font-size="14.00" fill="#000000">4</text>
</g>
<!-- 3 -->
<g id="node3" class="node">
<title>3</title>
<ellipse fill="none" stroke="#000000" cx="124.8927" cy="-18" rx="27.0966" ry="18"/>
<text text-anchor="middle" x="124.8927" y="-14.3" font-family="Times,serif" font-size="14.00" fill="#000000">t3=1</text>
</g>
<!-- 1&#45;&#45;3 -->
<g id="edge2" class="edge">
<title>1&#45;&#45;3</title>
<path fill="none" stroke="#000000" d="M52.6848,-37.9766C67.1433,-33.9766 85.1953,-28.9824 99.6326,-24.9883"/>
<text text-anchor="middle" x="76.0952" y="-35.8" font-family="Times,serif" font-size="14.00" fill="#000000">5</text>
</g>
<!-- 4 -->
<g id="node4" class="node">
<title>4</title>
<ellipse fill="none" stroke="#000000" cx="222.4879" cy="-126" rx="27.0966" ry="18"/>
<text text-anchor="middle" x="222.4879" y="-122.3" font-family="Times,serif" font-size="14.00" fill="#000000">t4=4</text>
</g>
<!-- 2&#45;&#45;4 -->
<g id="edge3" class="edge">
<title>2&#45;&#45;4</title>
<path fill="none" stroke="#000000" d="M146.0694,-83.7172C162.4394,-92.7748 184.993,-105.2538 201.3525,-114.3057"/>
<text text-anchor="middle" x="173.6903" y="-103.8" font-family="Times,serif" font-size="14.00" fill="#000000">3</text>
</g>
<!-- 5 -->
<g id="node5" class="node">
<title>5</title>
<ellipse fill="none" stroke="#000000" cx="222.4879" cy="-72" rx="27.0966" ry="18"/>
<text text-anchor="middle" x="222.4879" y="-68.3" font-family="Times,serif" font-size="14.00" fill="#000000">t5=2</text>
</g>
<!-- 2&#45;&#45;5 -->
<g id="edge4" class="edge">
<title>2&#45;&#45;5</title>
<path fill="none" stroke="#000000" d="M152.3381,-72C165.6437,-72 181.5874,-72 194.9103,-72"/>
<text text-anchor="middle" x="173.6903" y="-75.8" font-family="Times,serif" font-size="14.00" fill="#000000">2</text>
</g>
<!-- 6 -->
<g id="node6" class="node">
<title>6</title>
<ellipse fill="none" stroke="#000000" cx="222.4879" cy="-18" rx="27.0966" ry="18"/>
<text text-anchor="middle" x="222.4879" y="-14.3" font-family="Times,serif" font-size="14.00" fill="#000000">t6=9</text>
</g>
<!-- 3&#45;&#45;6 -->
<g id="edge5" class="edge">
<title>3&#45;&#45;6</title>
<path fill="none" stroke="#000000" d="M152.3381,-18C165.6437,-18 181.5874,-18 194.9103,-18"/>
<text text-anchor="middle" x="173.6903" y="-21.8" font-family="Times,serif" font-size="14.00" fill="#000000">1</text>
</g>
</g>
</svg>
