<?xml version="1.0" encoding="UTF-8" standalone="no"?>
<!DOCTYPE svg PUBLIC "-//W3C//DTD SVG 1.1//EN"
 "http://www.w3.org/Graphics/SVG/1.1/DTD/svg11.dtd">
<!-- Generated by graphviz version 2.40.1 (20161225.0304)
 -->
<!-- Title: G Pages: 1 -->
<svg width="226pt" height="1016pt"
 viewBox="0.00 0.00 226.19 1016.00" xmlns="http://www.w3.org/2000/svg" xmlns:xlink="http://www.w3.org/1999/xlink">
<g id="graph0" class="graph" transform="scale(1 1) rotate(0) translate(4 1012)">
<title>G</title>
<polygon fill="#ffffff" stroke="transparent" points="-4,4 -4,-1012 222.1857,-1012 222.1857,4 -4,4"/>
<!-- 1 -->
<g id="node1" class="node">
<title>1</title>
<ellipse fill="none" stroke="#000000" cx="177.8893" cy="-990" rx="31.6951" ry="18"/>
<text text-anchor="middle" x="177.8893" y="-986.3" font-family="Times,serif" font-size="14.00" fill="#000000">t1=40</text>
</g>
<!-- 2 -->
<g id="node2" class="node">
<title>2</title>
<ellipse fill="none" stroke="#000000" cx="177.8893" cy="-936" rx="31.6951" ry="18"/>
<text text-anchor="middle" x="177.8893" y="-932.3" font-family="Times,serif" font-size="14.00" fill="#000000">t2=25</text>
</g>
<!-- 3 -->
<g id="node3" class="node">
<title>3</title>
<ellipse fill="none" stroke="#000000" cx="177.8893" cy="-882" rx="36.2938" ry="18"/>
<text text-anchor="middle" x="177.8893" y="-878.3" font-family="Times,serif" font-size="14.00" fill="#000000">t3=508</text>
</g>
<!-- 4 -->
<g id="node4" class="node">
<title>4</title>
<ellipse fill="none" stroke="#000000" cx="177.8893" cy="-828" rx="36.2938" ry="18"/>
<text text-anchor="middle" x="177.8893" y="-824.3" font-family="Times,serif" font-size="14.00" fill="#000000">t4=503</text>
</g>
<!-- 5 -->
<g id="node5" class="node">
<title>5</title>
<ellipse fill="none" stroke="#000000" cx="177.8893" cy="-774" rx="36.2938" ry="18"/>
<text text-anchor="middle" x="177.8893" y="-770.3" font-family="Times,serif" font-size="14.00" fill="#000000">t5=649</text>
</g>
<!-- 6 -->
<g id="node6" class="node">
<title>6</title>
<ellipse fill="none" stroke="#000000" cx="177.8893" cy="-720" rx="36.2938" ry="18"/>
<text text-anchor="middle" x="177.8893" y="-716.3" font-family="Times,serif" font-size="14.00" fill="#000000">t6=573</text>
</g>
<!-- 7 -->
<g id="node7" class="node">
<title>7</title>
<ellipse fill="none" stroke="#000000" cx="177.8893" cy="-666" rx="36.2938" ry="18"/>
<text text-anchor="middle" x="177.8893" y="-662.3" font-family="Times,serif" font-size="14.00" fill="#000000">t7=327</text>
</g>
<!-- 8 -->
<g id="node8" class="node">
<title>8</title>
<ellipse fill="none" stroke="#000000" cx="177.8893" cy="-612" rx="31.6951" ry="18"/>
<text text-anchor="middle" x="177.8893" y="-608.3" font-family="Times,serif" font-size="14.00" fill="#000000">t8=25</text>
</g>
<!-- 9 -->
<g id="node9" class="node">
<title>9</title>
<ellipse fill="none" stroke="#000000" cx="177.8893" cy="-558" rx="36.2938" ry="18"/>
<text text-anchor="middle" x="177.8893" y="-554.3" font-family="Times,serif" font-size="14.00" fill="#000000">t9=789</text>
</g>
<!-- 10 -->
<g id="node10" class="node">
<title>10</title>
<ellipse fill="none" stroke="#000000" cx="177.8893" cy="-504" rx="40.0939" ry="18"/>
<text text-anchor="middle" x="177.8893" y="-500.3" font-family="Times,serif" font-size="14.00" fill="#000000">t10=275</text>
</g>
<!-- 11 -->
<g id="node11" class="node">
<title>11</title>
<ellipse fill="none" stroke="#000000" cx="177.8893" cy="-450" rx="40.0939" ry="18"/>
<text text-anchor="middle" x="177.8893" y="-446.3" font-family="Times,serif" font-size="14.00" fill="#000000">t11=403</text>
</g>
<!-- 12 -->
<g id="node12" class="node">
<title>12</title>
<ellipse fill="none" stroke="#000000" cx="177.8893" cy="-396" rx="36.2938" ry="18"/>
<text text-anchor="middle" x="177.8893" y="-392.3" font-family="Times,serif" font-size="14.00" fill="#000000">t12=75</text>
</g>
<!-- 13 -->
<g id="node13" class="node">
<title>13</title>
<ellipse fill="none" stroke="#000000" cx="40.2964" cy="-504" rx="40.0939" ry="18"/>
<text text-anchor="middle" x="40.2964" y="-500.3" font-family="Times,serif" font-size="14.00" fill="#000000">t13=545</text>
</g>
<!-- 13&#45;&#45;1 -->
<g id="edge8" class="edge">
<title>13&#45;&#45;1</title>
<path fill="none" stroke="#000000" d="M41.7705,-522.4157C47.5017,-591.7646 69.4358,-836.8856 98.5928,-909 109.6899,-936.4463 116.2944,-942.4374 137.5928,-963 142.9242,-968.1472 149.3519,-972.9461 155.4921,-977.028"/>
<text text-anchor="middle" x="109.0928" y="-947.8" font-family="Times,serif" font-size="14.00" fill="#000000">168</text>
</g>
<!-- 13&#45;&#45;2 -->
<g id="edge18" class="edge">
<title>13&#45;&#45;2</title>
<path fill="none" stroke="#000000" d="M42.1938,-522.0825C48.9572,-584.914 72.8592,-793.2815 98.5928,-855 109.986,-882.3247 116.2944,-888.4374 137.5928,-909 142.9242,-914.1472 149.3519,-918.9461 155.4921,-923.028"/>
<text text-anchor="middle" x="109.0928" y="-893.8" font-family="Times,serif" font-size="14.00" fill="#000000">230</text>
</g>
<!-- 13&#45;&#45;3 -->
<g id="edge19" class="edge">
<title>13&#45;&#45;3</title>
<path fill="none" stroke="#000000" d="M41.2269,-522.1182C44.2138,-569.6072 56.0179,-700.8606 98.5928,-800 110.4175,-827.5346 116.1249,-834.093 137.5928,-855 142.5398,-859.8178 148.4521,-864.3193 154.2037,-868.213"/>
<text text-anchor="middle" x="109.0928" y="-839.8" font-family="Times,serif" font-size="14.00" fill="#000000">479</text>
</g>
<!-- 13&#45;&#45;4 -->
<g id="edge4" class="edge">
<title>13&#45;&#45;4</title>
<path fill="none" stroke="#000000" d="M42.3732,-522.2806C47.5555,-563.5564 63.2648,-666.4882 98.5928,-745 111.0385,-772.6588 115.9543,-779.7474 137.5928,-801 142.5194,-805.8387 148.4243,-810.3478 154.1753,-814.242"/>
<text text-anchor="middle" x="109.0928" y="-784.8" font-family="Times,serif" font-size="14.00" fill="#000000">448</text>
</g>
<!-- 13&#45;&#45;5 -->
<g id="edge2" class="edge">
<title>13&#45;&#45;5</title>
<path fill="none" stroke="#000000" d="M44.0855,-522.1027C51.6152,-556.1489 70.2211,-631.5479 98.5928,-690 111.9965,-717.6146 115.7825,-725.4006 137.5928,-747 142.4993,-751.859 148.397,-756.3754 154.1475,-760.2702"/>
<text text-anchor="middle" x="109.0928" y="-729.8" font-family="Times,serif" font-size="14.00" fill="#000000">918</text>
</g>
<!-- 13&#45;&#45;6 -->
<g id="edge11" class="edge">
<title>13&#45;&#45;6</title>
<path fill="none" stroke="#000000" d="M45.2853,-521.963C56.2687,-558.5555 85.7724,-642.5335 137.5928,-693 142.5398,-697.8178 148.4521,-702.3193 154.2037,-706.213"/>
<text text-anchor="middle" x="109.0928" y="-674.8" font-family="Times,serif" font-size="14.00" fill="#000000">946</text>
</g>
<!-- 13&#45;&#45;7 -->
<g id="edge7" class="edge">
<title>13&#45;&#45;7</title>
<path fill="none" stroke="#000000" d="M50.0767,-521.8867C65.799,-549.4764 98.8857,-602.9875 137.5928,-639 142.6485,-643.7037 148.5997,-648.1642 154.3542,-652.0549"/>
<text text-anchor="middle" x="109.0928" y="-622.8" font-family="Times,serif" font-size="14.00" fill="#000000">688</text>
</g>
<!-- 13&#45;&#45;8 -->
<g id="edge15" class="edge">
<title>13&#45;&#45;8</title>
<path fill="none" stroke="#000000" d="M58.4545,-520.1567C77.637,-536.9744 109.0062,-563.7724 137.5928,-585 143.6777,-589.5184 150.4646,-594.1969 156.7079,-598.3645"/>
<text text-anchor="middle" x="109.0928" y="-573.8" font-family="Times,serif" font-size="14.00" fill="#000000">21</text>
</g>
<!-- 13&#45;&#45;9 -->
<g id="edge9" class="edge">
<title>13&#45;&#45;9</title>
<path fill="none" stroke="#000000" d="M70.8327,-515.9844C94.2676,-525.1816 126.3872,-537.7874 149.3173,-546.7866"/>
<text text-anchor="middle" x="109.0928" y="-537.8" font-family="Times,serif" font-size="14.00" fill="#000000">722</text>
</g>
<!-- 13&#45;&#45;10 -->
<g id="edge13" class="edge">
<title>13&#45;&#45;10</title>
<path fill="none" stroke="#000000" d="M80.8346,-504C98.5912,-504 119.3877,-504 137.1654,-504"/>
<text text-anchor="middle" x="109.0928" y="-507.8" font-family="Times,serif" font-size="14.00" fill="#000000">996</text>
</g>
<!-- 13&#45;&#45;11 -->
<g id="edge5" class="edge">
<title>13&#45;&#45;11</title>
<path fill="none" stroke="#000000" d="M70.8327,-492.0156C93.6342,-483.0669 124.6574,-470.8915 147.4383,-461.9508"/>
<text text-anchor="middle" x="109.0928" y="-483.8" font-family="Times,serif" font-size="14.00" fill="#000000">446</text>
</g>
<!-- 13&#45;&#45;12 -->
<g id="edge16" class="edge">
<title>13&#45;&#45;12</title>
<path fill="none" stroke="#000000" d="M58.3882,-487.7533C77.5167,-470.8622 108.8423,-444.0051 137.5928,-423 143.3046,-418.827 149.6066,-414.4856 155.4965,-410.5355"/>
<text text-anchor="middle" x="109.0928" y="-455.8" font-family="Times,serif" font-size="14.00" fill="#000000">530</text>
</g>
<!-- 14 -->
<g id="node14" class="node">
<title>14</title>
<ellipse fill="none" stroke="#000000" cx="177.8893" cy="-342" rx="40.0939" ry="18"/>
<text text-anchor="middle" x="177.8893" y="-338.3" font-family="Times,serif" font-size="14.00" fill="#000000">t14=840</text>
</g>
<!-- 13&#45;&#45;14 -->
<g id="edge1" class="edge">
<title>13&#45;&#45;14</title>
<path fill="none" stroke="#000000" d="M50.0337,-486.0669C65.6984,-458.415 98.7093,-404.822 137.5928,-369 142.4238,-364.5495 148.0517,-360.3044 153.5426,-356.5529"/>
<text text-anchor="middle" x="109.0928" y="-412.8" font-family="Times,serif" font-size="14.00" fill="#000000">886</text>
</g>
<!-- 15 -->
<g id="node15" class="node">
<title>15</title>
<ellipse fill="none" stroke="#000000" cx="177.8893" cy="-288" rx="40.0939" ry="18"/>
<text text-anchor="middle" x="177.8893" y="-284.3" font-family="Times,serif" font-size="14.00" fill="#000000">t15=434</text>
</g>
<!-- 13&#45;&#45;15 -->
<g id="edge12" class="edge">
<title>13&#45;&#45;15</title>
<path fill="none" stroke="#000000" d="M45.2493,-485.9998C56.1662,-449.3388 85.5538,-365.2411 137.5928,-315 142.3184,-310.4377 147.9052,-306.1491 153.3897,-302.3908"/>
<text text-anchor="middle" x="109.0928" y="-362.8" font-family="Times,serif" font-size="14.00" fill="#000000">840</text>
</g>
<!-- 16 -->
<g id="node16" class="node">
<title>16</title>
<ellipse fill="none" stroke="#000000" cx="177.8893" cy="-234" rx="40.0939" ry="18"/>
<text text-anchor="middle" x="177.8893" y="-230.3" font-family="Times,serif" font-size="14.00" fill="#000000">t16=976</text>
</g>
<!-- 13&#45;&#45;16 -->
<g id="edge10" class="edge">
<title>13&#45;&#45;16</title>
<path fill="none" stroke="#000000" d="M43.9646,-486.0435C51.3508,-451.9037 69.8094,-375.7945 98.5928,-317 111.9288,-289.7593 115.9543,-282.2526 137.5928,-261 142.2791,-256.3974 147.8505,-252.0929 153.3327,-248.3323"/>
<text text-anchor="middle" x="109.0928" y="-320.8" font-family="Times,serif" font-size="14.00" fill="#000000">984</text>
</g>
<!-- 17 -->
<g id="node17" class="node">
<title>17</title>
<ellipse fill="none" stroke="#000000" cx="177.8893" cy="-180" rx="40.0939" ry="18"/>
<text text-anchor="middle" x="177.8893" y="-176.3" font-family="Times,serif" font-size="14.00" fill="#000000">t17=613</text>
</g>
<!-- 13&#45;&#45;17 -->
<g id="edge14" class="edge">
<title>13&#45;&#45;17</title>
<path fill="none" stroke="#000000" d="M42.273,-485.9317C47.288,-444.6473 62.7403,-340.8822 98.5928,-262 110.9921,-234.7194 116.1249,-227.907 137.5928,-207 142.2985,-202.4173 147.8776,-198.1206 153.3609,-194.3611"/>
<text text-anchor="middle" x="109.0928" y="-265.8" font-family="Times,serif" font-size="14.00" fill="#000000">139</text>
</g>
<!-- 18 -->
<g id="node18" class="node">
<title>18</title>
<ellipse fill="none" stroke="#000000" cx="177.8893" cy="-126" rx="40.0939" ry="18"/>
<text text-anchor="middle" x="177.8893" y="-122.3" font-family="Times,serif" font-size="14.00" fill="#000000">t18=686</text>
</g>
<!-- 13&#45;&#45;18 -->
<g id="edge17" class="edge">
<title>13&#45;&#45;18</title>
<path fill="none" stroke="#000000" d="M41.1653,-485.7994C44.0035,-438.0989 55.4796,-306.2893 98.5928,-207 110.3842,-179.8447 116.2944,-173.5626 137.5928,-153 142.3184,-148.4377 147.9052,-144.1491 153.3897,-140.3908"/>
<text text-anchor="middle" x="109.0928" y="-210.8" font-family="Times,serif" font-size="14.00" fill="#000000">456</text>
</g>
<!-- 19 -->
<g id="node19" class="node">
<title>19</title>
<ellipse fill="none" stroke="#000000" cx="177.8893" cy="-72" rx="40.0939" ry="18"/>
<text text-anchor="middle" x="177.8893" y="-68.3" font-family="Times,serif" font-size="14.00" fill="#000000">t19=385</text>
</g>
<!-- 13&#45;&#45;19 -->
<g id="edge3" class="edge">
<title>13&#45;&#45;19</title>
<path fill="none" stroke="#000000" d="M42.1701,-485.8578C48.8547,-422.8202 72.5269,-213.7802 98.5928,-152 109.9615,-125.0545 116.4626,-119.2193 137.5928,-99 142.3386,-94.4588 147.9334,-90.1784 153.4191,-86.4214"/>
<text text-anchor="middle" x="109.0928" y="-155.8" font-family="Times,serif" font-size="14.00" fill="#000000">878</text>
</g>
<!-- 20 -->
<g id="node20" class="node">
<title>20</title>
<ellipse fill="none" stroke="#000000" cx="177.8893" cy="-18" rx="40.0939" ry="18"/>
<text text-anchor="middle" x="177.8893" y="-14.3" font-family="Times,serif" font-size="14.00" fill="#000000">t20=394</text>
</g>
<!-- 13&#45;&#45;20 -->
<g id="edge6" class="edge">
<title>13&#45;&#45;20</title>
<path fill="none" stroke="#000000" d="M41.6846,-485.9518C47.1822,-416.8523 68.5999,-169.3716 98.5928,-97 109.6531,-70.3122 116.6295,-64.8773 137.5928,-45 142.3593,-40.4805 147.9621,-36.2085 153.4491,-32.4528"/>
<text text-anchor="middle" x="109.0928" y="-100.8" font-family="Times,serif" font-size="14.00" fill="#000000">155</text>
</g>
</g>
</svg>
