<?xml version="1.0" encoding="UTF-8" standalone="no"?>
<!DOCTYPE svg PUBLIC "-//W3C//DTD SVG 1.1//EN"
 "http://www.w3.org/Graphics/SVG/1.1/DTD/svg11.dtd">
<!-- Generated by graphviz version 2.40.1 (20161225.0304)
 -->
<!-- Title: G Pages: 1 -->
<svg width="2595pt" height="44pt"
 viewBox="0.00 0.00 2594.76 44.00" xmlns="http://www.w3.org/2000/svg" xmlns:xlink="http://www.w3.org/1999/xlink">
<g id="graph0" class="graph" transform="scale(1 1) rotate(0) translate(4 40)">
<title>G</title>
<polygon fill="#ffffff" stroke="transparent" points="-4,4 -4,-40 2590.7647,-40 2590.7647,4 -4,4"/>
<!-- 1 -->
<g id="node1" class="node">
<title>1</title>
<ellipse fill="none" stroke="#000000" cx="1356.4302" cy="-18" rx="36.2938" ry="18"/>
<text text-anchor="middle" x="1356.4302" y="-14.3" font-family="Times,serif" font-size="14.00" fill="#000000">t1=797</text>
</g>
<!-- 3 -->
<g id="node3" class="node">
<title>3</title>
<ellipse fill="none" stroke="#000000" cx="1479.2238" cy="-18" rx="36.2938" ry="18"/>
<text text-anchor="middle" x="1479.2238" y="-14.3" font-family="Times,serif" font-size="14.00" fill="#000000">t3=909</text>
</g>
<!-- 1&#45;&#45;3 -->
<g id="edge17" class="edge">
<title>1&#45;&#45;3</title>
<path fill="none" stroke="#000000" d="M1392.9399,-18C1408.6343,-18 1426.9404,-18 1442.6428,-18"/>
<text text-anchor="middle" x="1417.827" y="-21.8" font-family="Times,serif" font-size="14.00" fill="#000000">83</text>
</g>
<!-- 2 -->
<g id="node2" class="node">
<title>2</title>
<ellipse fill="none" stroke="#000000" cx="2021.7958" cy="-18" rx="36.2938" ry="18"/>
<text text-anchor="middle" x="2021.7958" y="-14.3" font-family="Times,serif" font-size="14.00" fill="#000000">t2=756</text>
</g>
<!-- 13 -->
<g id="node13" class="node">
<title>13</title>
<ellipse fill="none" stroke="#000000" cx="2155.489" cy="-18" rx="40.0939" ry="18"/>
<text text-anchor="middle" x="2155.489" y="-14.3" font-family="Times,serif" font-size="14.00" fill="#000000">t13=131</text>
</g>
<!-- 2&#45;&#45;13 -->
<g id="edge4" class="edge">
<title>2&#45;&#45;13</title>
<path fill="none" stroke="#000000" d="M2058.3281,-18C2075.8008,-18 2096.7791,-18 2114.764,-18"/>
<text text-anchor="middle" x="2086.6926" y="-21.8" font-family="Times,serif" font-size="14.00" fill="#000000">610</text>
</g>
<!-- 15 -->
<g id="node15" class="node">
<title>15</title>
<ellipse fill="none" stroke="#000000" cx="1612.917" cy="-18" rx="40.0939" ry="18"/>
<text text-anchor="middle" x="1612.917" y="-14.3" font-family="Times,serif" font-size="14.00" fill="#000000">t15=482</text>
</g>
<!-- 3&#45;&#45;15 -->
<g id="edge6" class="edge">
<title>3&#45;&#45;15</title>
<path fill="none" stroke="#000000" d="M1515.756,-18C1533.2287,-18 1554.207,-18 1572.1919,-18"/>
<text text-anchor="middle" x="1544.1205" y="-21.8" font-family="Times,serif" font-size="14.00" fill="#000000">442</text>
</g>
<!-- 4 -->
<g id="node4" class="node">
<title>4</title>
<ellipse fill="none" stroke="#000000" cx="829.4567" cy="-18" rx="36.2938" ry="18"/>
<text text-anchor="middle" x="829.4567" y="-14.3" font-family="Times,serif" font-size="14.00" fill="#000000">t4=933</text>
</g>
<!-- 10 -->
<g id="node10" class="node">
<title>10</title>
<ellipse fill="none" stroke="#000000" cx="963.1499" cy="-18" rx="40.0939" ry="18"/>
<text text-anchor="middle" x="963.1499" y="-14.3" font-family="Times,serif" font-size="14.00" fill="#000000">t10=987</text>
</g>
<!-- 4&#45;&#45;10 -->
<g id="edge10" class="edge">
<title>4&#45;&#45;10</title>
<path fill="none" stroke="#000000" d="M865.989,-18C883.4617,-18 904.44,-18 922.4249,-18"/>
<text text-anchor="middle" x="894.3535" y="-21.8" font-family="Times,serif" font-size="14.00" fill="#000000">151</text>
</g>
<!-- 5 -->
<g id="node5" class="node">
<title>5</title>
<ellipse fill="none" stroke="#000000" cx="2419.7751" cy="-18" rx="36.2938" ry="18"/>
<text text-anchor="middle" x="2419.7751" y="-14.3" font-family="Times,serif" font-size="14.00" fill="#000000">t5=709</text>
</g>
<!-- 12 -->
<g id="node12" class="node">
<title>12</title>
<ellipse fill="none" stroke="#000000" cx="2546.4683" cy="-18" rx="40.0939" ry="18"/>
<text text-anchor="middle" x="2546.4683" y="-14.3" font-family="Times,serif" font-size="14.00" fill="#000000">t12=891</text>
</g>
<!-- 5&#45;&#45;12 -->
<g id="edge19" class="edge">
<title>5&#45;&#45;12</title>
<path fill="none" stroke="#000000" d="M2456.42,-18C2471.9131,-18 2490.0146,-18 2505.9081,-18"/>
<text text-anchor="middle" x="2481.1719" y="-21.8" font-family="Times,serif" font-size="14.00" fill="#000000">35</text>
</g>
<!-- 6 -->
<g id="node6" class="node">
<title>6</title>
<ellipse fill="none" stroke="#000000" cx="566.62" cy="-18" rx="31.6951" ry="18"/>
<text text-anchor="middle" x="566.62" y="-14.3" font-family="Times,serif" font-size="14.00" fill="#000000">t6=21</text>
</g>
<!-- 18 -->
<g id="node18" class="node">
<title>18</title>
<ellipse fill="none" stroke="#000000" cx="695.7636" cy="-18" rx="40.0939" ry="18"/>
<text text-anchor="middle" x="695.7636" y="-14.3" font-family="Times,serif" font-size="14.00" fill="#000000">t18=369</text>
</g>
<!-- 6&#45;&#45;18 -->
<g id="edge18" class="edge">
<title>6&#45;&#45;18</title>
<path fill="none" stroke="#000000" d="M598.5431,-18C615.7226,-18 637.0863,-18 655.4081,-18"/>
<text text-anchor="middle" x="626.9671" y="-21.8" font-family="Times,serif" font-size="14.00" fill="#000000">415</text>
</g>
<!-- 7 -->
<g id="node7" class="node">
<title>7</title>
<ellipse fill="none" stroke="#000000" cx="166.1903" cy="-18" rx="36.2938" ry="18"/>
<text text-anchor="middle" x="166.1903" y="-14.3" font-family="Times,serif" font-size="14.00" fill="#000000">t7=306</text>
</g>
<!-- 20 -->
<g id="node20" class="node">
<title>20</title>
<ellipse fill="none" stroke="#000000" cx="299.8835" cy="-18" rx="40.0939" ry="18"/>
<text text-anchor="middle" x="299.8835" y="-14.3" font-family="Times,serif" font-size="14.00" fill="#000000">t20=783</text>
</g>
<!-- 7&#45;&#45;20 -->
<g id="edge2" class="edge">
<title>7&#45;&#45;20</title>
<path fill="none" stroke="#000000" d="M202.7226,-18C220.1952,-18 241.1736,-18 259.1584,-18"/>
<text text-anchor="middle" x="231.0871" y="-21.8" font-family="Times,serif" font-size="14.00" fill="#000000">985</text>
</g>
<!-- 8 -->
<g id="node8" class="node">
<title>8</title>
<ellipse fill="none" stroke="#000000" cx="1096.8431" cy="-18" rx="36.2938" ry="18"/>
<text text-anchor="middle" x="1096.8431" y="-14.3" font-family="Times,serif" font-size="14.00" fill="#000000">t8=500</text>
</g>
<!-- 14 -->
<g id="node14" class="node">
<title>14</title>
<ellipse fill="none" stroke="#000000" cx="1226.6367" cy="-18" rx="36.2938" ry="18"/>
<text text-anchor="middle" x="1226.6367" y="-14.3" font-family="Times,serif" font-size="14.00" fill="#000000">t14=59</text>
</g>
<!-- 8&#45;&#45;14 -->
<g id="edge1" class="edge">
<title>8&#45;&#45;14</title>
<path fill="none" stroke="#000000" d="M1133.3433,-18C1151.0385,-18 1172.2424,-18 1189.9608,-18"/>
<text text-anchor="middle" x="1161.7399" y="-21.8" font-family="Times,serif" font-size="14.00" fill="#000000">964</text>
</g>
<!-- 9 -->
<g id="node9" class="node">
<title>9</title>
<ellipse fill="none" stroke="#000000" cx="36.3968" cy="-18" rx="36.2938" ry="18"/>
<text text-anchor="middle" x="36.3968" y="-14.3" font-family="Times,serif" font-size="14.00" fill="#000000">t9=829</text>
</g>
<!-- 9&#45;&#45;7 -->
<g id="edge14" class="edge">
<title>9&#45;&#45;7</title>
<path fill="none" stroke="#000000" d="M72.8969,-18C90.5922,-18 111.796,-18 129.5144,-18"/>
<text text-anchor="middle" x="101.2935" y="-21.8" font-family="Times,serif" font-size="14.00" fill="#000000">421</text>
</g>
<!-- 10&#45;&#45;8 -->
<g id="edge7" class="edge">
<title>10&#45;&#45;8</title>
<path fill="none" stroke="#000000" d="M1003.6251,-18C1021.609,-18 1042.6257,-18 1060.1465,-18"/>
<text text-anchor="middle" x="1031.9464" y="-21.8" font-family="Times,serif" font-size="14.00" fill="#000000">963</text>
</g>
<!-- 11 -->
<g id="node11" class="node">
<title>11</title>
<ellipse fill="none" stroke="#000000" cx="1750.5098" cy="-18" rx="40.0939" ry="18"/>
<text text-anchor="middle" x="1750.5098" y="-14.3" font-family="Times,serif" font-size="14.00" fill="#000000">t11=257</text>
</g>
<!-- 19 -->
<g id="node19" class="node">
<title>19</title>
<ellipse fill="none" stroke="#000000" cx="1888.1027" cy="-18" rx="40.0939" ry="18"/>
<text text-anchor="middle" x="1888.1027" y="-14.3" font-family="Times,serif" font-size="14.00" fill="#000000">t19=305</text>
</g>
<!-- 11&#45;&#45;19 -->
<g id="edge8" class="edge">
<title>11&#45;&#45;19</title>
<path fill="none" stroke="#000000" d="M1791.048,-18C1808.8046,-18 1829.601,-18 1847.3787,-18"/>
<text text-anchor="middle" x="1819.3062" y="-21.8" font-family="Times,serif" font-size="14.00" fill="#000000">350</text>
</g>
<!-- 17 -->
<g id="node17" class="node">
<title>17</title>
<ellipse fill="none" stroke="#000000" cx="2293.0819" cy="-18" rx="40.0939" ry="18"/>
<text text-anchor="middle" x="2293.0819" y="-14.3" font-family="Times,serif" font-size="14.00" fill="#000000">t17=131</text>
</g>
<!-- 13&#45;&#45;17 -->
<g id="edge5" class="edge">
<title>13&#45;&#45;17</title>
<path fill="none" stroke="#000000" d="M2196.0272,-18C2213.7838,-18 2234.5803,-18 2252.358,-18"/>
<text text-anchor="middle" x="2224.2855" y="-21.8" font-family="Times,serif" font-size="14.00" fill="#000000">870</text>
</g>
<!-- 14&#45;&#45;1 -->
<g id="edge15" class="edge">
<title>14&#45;&#45;1</title>
<path fill="none" stroke="#000000" d="M1263.1368,-18C1280.8321,-18 1302.0359,-18 1319.7543,-18"/>
<text text-anchor="middle" x="1291.5334" y="-21.8" font-family="Times,serif" font-size="14.00" fill="#000000">799</text>
</g>
<!-- 15&#45;&#45;11 -->
<g id="edge9" class="edge">
<title>15&#45;&#45;11</title>
<path fill="none" stroke="#000000" d="M1653.4552,-18C1671.2117,-18 1692.0082,-18 1709.7859,-18"/>
<text text-anchor="middle" x="1681.7134" y="-21.8" font-family="Times,serif" font-size="14.00" fill="#000000">859</text>
</g>
<!-- 16 -->
<g id="node16" class="node">
<title>16</title>
<ellipse fill="none" stroke="#000000" cx="437.4764" cy="-18" rx="40.0939" ry="18"/>
<text text-anchor="middle" x="437.4764" y="-14.3" font-family="Times,serif" font-size="14.00" fill="#000000">t16=240</text>
</g>
<!-- 16&#45;&#45;6 -->
<g id="edge16" class="edge">
<title>16&#45;&#45;6</title>
<path fill="none" stroke="#000000" d="M477.9839,-18C496.1809,-18 517.3534,-18 534.4413,-18"/>
<text text-anchor="middle" x="506.2728" y="-21.8" font-family="Times,serif" font-size="14.00" fill="#000000">940</text>
</g>
<!-- 17&#45;&#45;5 -->
<g id="edge11" class="edge">
<title>17&#45;&#45;5</title>
<path fill="none" stroke="#000000" d="M2333.5167,-18C2349.4485,-18 2367.6149,-18 2383.1541,-18"/>
<text text-anchor="middle" x="2358.3783" y="-21.8" font-family="Times,serif" font-size="14.00" fill="#000000">30</text>
</g>
<!-- 18&#45;&#45;4 -->
<g id="edge3" class="edge">
<title>18&#45;&#45;4</title>
<path fill="none" stroke="#000000" d="M736.2387,-18C754.2226,-18 775.2393,-18 792.7601,-18"/>
<text text-anchor="middle" x="764.56" y="-21.8" font-family="Times,serif" font-size="14.00" fill="#000000">890</text>
</g>
<!-- 19&#45;&#45;2 -->
<g id="edge12" class="edge">
<title>19&#45;&#45;2</title>
<path fill="none" stroke="#000000" d="M1928.5778,-18C1946.5617,-18 1967.5784,-18 1985.0992,-18"/>
<text text-anchor="middle" x="1956.8991" y="-21.8" font-family="Times,serif" font-size="14.00" fill="#000000">870</text>
</g>
<!-- 20&#45;&#45;16 -->
<g id="edge13" class="edge">
<title>20&#45;&#45;16</title>
<path fill="none" stroke="#000000" d="M340.4217,-18C358.1783,-18 378.9747,-18 396.7524,-18"/>
<text text-anchor="middle" x="368.6799" y="-21.8" font-family="Times,serif" font-size="14.00" fill="#000000">735</text>
</g>
</g>
</svg>
