<?xml version="1.0" encoding="UTF-8" standalone="no"?>
<!DOCTYPE svg PUBLIC "-//W3C//DTD SVG 1.1//EN"
 "http://www.w3.org/Graphics/SVG/1.1/DTD/svg11.dtd">
<!-- Generated by graphviz version 2.40.1 (20161225.0304)
 -->
<!-- Title: G Pages: 1 -->
<svg width="136pt" height="305pt"
 viewBox="0.00 0.00 135.60 305.00" xmlns="http://www.w3.org/2000/svg" xmlns:xlink="http://www.w3.org/1999/xlink">
<g id="graph0" class="graph" transform="scale(1 1) rotate(0) translate(4 301)">
<title>G</title>
<polygon fill="#ffffff" stroke="transparent" points="-4,4 -4,-301 131.5952,-301 131.5952,4 -4,4"/>
<!-- 1 -->
<g id="node1" class="node">
<title>1</title>
<ellipse fill="none" stroke="#000000" cx="27.2976" cy="-279" rx="27.0966" ry="18"/>
<text text-anchor="middle" x="27.2976" y="-275.3" font-family="Times,serif" font-size="14.00" fill="#000000">t1=2</text>
</g>
<!-- 2 -->
<g id="node2" class="node">
<title>2</title>
<ellipse fill="none" stroke="#000000" cx="63.2976" cy="-192" rx="27.0966" ry="18"/>
<text text-anchor="middle" x="63.2976" y="-188.3" font-family="Times,serif" font-size="14.00" fill="#000000">t2=5</text>
</g>
<!-- 1&#45;&#45;2 -->
<g id="edge1" class="edge">
<title>1&#45;&#45;2</title>
<path fill="none" stroke="#000000" d="M34.5827,-261.3943C40.8286,-246.3001 49.7806,-224.6661 56.0233,-209.5796"/>
<text text-anchor="middle" x="51.7976" y="-231.8" font-family="Times,serif" font-size="14.00" fill="#000000">2</text>
</g>
<!-- 4 -->
<g id="node4" class="node">
<title>4</title>
<ellipse fill="none" stroke="#000000" cx="63.2976" cy="-105" rx="27.0966" ry="18"/>
<text text-anchor="middle" x="63.2976" y="-101.3" font-family="Times,serif" font-size="14.00" fill="#000000">t4=4</text>
</g>
<!-- 2&#45;&#45;4 -->
<g id="edge2" class="edge">
<title>2&#45;&#45;4</title>
<path fill="none" stroke="#000000" d="M63.2976,-173.9735C63.2976,-159.0422 63.2976,-137.9283 63.2976,-123.0034"/>
<text text-anchor="middle" x="66.7976" y="-144.8" font-family="Times,serif" font-size="14.00" fill="#000000">5</text>
</g>
<!-- 3 -->
<g id="node3" class="node">
<title>3</title>
<ellipse fill="none" stroke="#000000" cx="63.2976" cy="-18" rx="27.0966" ry="18"/>
<text text-anchor="middle" x="63.2976" y="-14.3" font-family="Times,serif" font-size="14.00" fill="#000000">t3=3</text>
</g>
<!-- 4&#45;&#45;3 -->
<g id="edge3" class="edge">
<title>4&#45;&#45;3</title>
<path fill="none" stroke="#000000" d="M63.2976,-86.9735C63.2976,-72.0422 63.2976,-50.9283 63.2976,-36.0034"/>
<text text-anchor="middle" x="66.7976" y="-57.8" font-family="Times,serif" font-size="14.00" fill="#000000">3</text>
</g>
<!-- 5 -->
<g id="node5" class="node">
<title>5</title>
<ellipse fill="none" stroke="#000000" cx="100.2976" cy="-279" rx="27.0966" ry="18"/>
<text text-anchor="middle" x="100.2976" y="-275.3" font-family="Times,serif" font-size="14.00" fill="#000000">t5=1</text>
</g>
<!-- 5&#45;&#45;2 -->
<g id="edge4" class="edge">
<title>5&#45;&#45;2</title>
<path fill="none" stroke="#000000" d="M92.8101,-261.3943C86.3907,-246.3001 77.1901,-224.6661 70.7739,-209.5796"/>
<text text-anchor="middle" x="86.7976" y="-231.8" font-family="Times,serif" font-size="14.00" fill="#000000">6</text>
</g>
</g>
</svg>
