<?xml version="1.0" encoding="UTF-8" standalone="no"?>
<!DOCTYPE svg PUBLIC "-//W3C//DTD SVG 1.1//EN"
 "http://www.w3.org/Graphics/SVG/1.1/DTD/svg11.dtd">
<!-- Generated by graphviz version 2.40.1 (20161225.0304)
 -->
<!-- Title: G Pages: 1 -->
<svg width="136pt" height="305pt"
 viewBox="0.00 0.00 135.60 305.00" xmlns="http://www.w3.org/2000/svg" xmlns:xlink="http://www.w3.org/1999/xlink">
<g id="graph0" class="graph" transform="scale(1 1) rotate(0) translate(4 301)">
<title>G</title>
<polygon fill="#ffffff" stroke="transparent" points="-4,4 -4,-301 131.5952,-301 131.5952,4 -4,4"/>
<!-- 1 -->
<g id="node1" class="node">
<title>1</title>
<ellipse fill="none" stroke="#000000" cx="100.2976" cy="-192" rx="27.0966" ry="18"/>
<text text-anchor="middle" x="100.2976" y="-188.3" font-family="Times,serif" font-size="14.00" fill="#000000">t1=4</text>
</g>
<!-- 3 -->
<g id="node3" class="node">
<title>3</title>
<ellipse fill="none" stroke="#000000" cx="100.2976" cy="-105" rx="27.0966" ry="18"/>
<text text-anchor="middle" x="100.2976" y="-101.3" font-family="Times,serif" font-size="14.00" fill="#000000">t3=3</text>
</g>
<!-- 1&#45;&#45;3 -->
<g id="edge1" class="edge">
<title>1&#45;&#45;3</title>
<path fill="none" stroke="#000000" d="M100.2976,-173.9735C100.2976,-159.0422 100.2976,-137.9283 100.2976,-123.0034"/>
<text text-anchor="middle" x="103.7976" y="-144.8" font-family="Times,serif" font-size="14.00" fill="#000000">2</text>
</g>
<!-- 4 -->
<g id="node4" class="node">
<title>4</title>
<ellipse fill="none" stroke="#000000" cx="27.2976" cy="-105" rx="27.0966" ry="18"/>
<text text-anchor="middle" x="27.2976" y="-101.3" font-family="Times,serif" font-size="14.00" fill="#000000">t4=4</text>
</g>
<!-- 1&#45;&#45;4 -->
<g id="edge3" class="edge">
<title>1&#45;&#45;4</title>
<path fill="none" stroke="#000000" d="M86.9083,-176.0429C73.7367,-160.3453 53.7442,-136.5185 40.602,-120.856"/>
<text text-anchor="middle" x="70.7976" y="-144.8" font-family="Times,serif" font-size="14.00" fill="#000000">6</text>
</g>
<!-- 2 -->
<g id="node2" class="node">
<title>2</title>
<ellipse fill="none" stroke="#000000" cx="100.2976" cy="-279" rx="27.0966" ry="18"/>
<text text-anchor="middle" x="100.2976" y="-275.3" font-family="Times,serif" font-size="14.00" fill="#000000">t2=3</text>
</g>
<!-- 2&#45;&#45;1 -->
<g id="edge2" class="edge">
<title>2&#45;&#45;1</title>
<path fill="none" stroke="#000000" d="M100.2976,-260.9735C100.2976,-246.0422 100.2976,-224.9283 100.2976,-210.0034"/>
<text text-anchor="middle" x="103.7976" y="-231.8" font-family="Times,serif" font-size="14.00" fill="#000000">1</text>
</g>
<!-- 5 -->
<g id="node5" class="node">
<title>5</title>
<ellipse fill="none" stroke="#000000" cx="27.2976" cy="-18" rx="27.0966" ry="18"/>
<text text-anchor="middle" x="27.2976" y="-14.3" font-family="Times,serif" font-size="14.00" fill="#000000">t5=3</text>
</g>
<!-- 4&#45;&#45;5 -->
<g id="edge4" class="edge">
<title>4&#45;&#45;5</title>
<path fill="none" stroke="#000000" d="M27.2976,-86.9735C27.2976,-72.0422 27.2976,-50.9283 27.2976,-36.0034"/>
<text text-anchor="middle" x="30.7976" y="-57.8" font-family="Times,serif" font-size="14.00" fill="#000000">6</text>
</g>
<!-- 6 -->
<g id="node6" class="node">
<title>6</title>
<ellipse fill="none" stroke="#000000" cx="27.2976" cy="-192" rx="27.0966" ry="18"/>
<text text-anchor="middle" x="27.2976" y="-188.3" font-family="Times,serif" font-size="14.00" fill="#000000">t6=3</text>
</g>
<!-- 6&#45;&#45;4 -->
<g id="edge5" class="edge">
<title>6&#45;&#45;4</title>
<path fill="none" stroke="#000000" d="M27.2976,-173.9735C27.2976,-159.0422 27.2976,-137.9283 27.2976,-123.0034"/>
<text text-anchor="middle" x="30.7976" y="-144.8" font-family="Times,serif" font-size="14.00" fill="#000000">2</text>
</g>
</g>
</svg>
